# xmcd CD database file
#
# Track frame offsets:
#	150
#	13242
#	27545
#	40750
#	52187
#	65830
#	79897
#	92375
#	105720
#	120355
#	131182
#	146122
#	160000
#	172062
#
# Disc length: 2487 seconds
#
# Revision: 2
# Processed by: cddbd v1.5.1PL0 Copyright (c) Steve Scherf et al.
# Submitted via: CDex 1.51
#
DISCID=c709b50e
DTITLE=Django Reinhardt - Djangology
DYEAR=1900
DGENRE=Jazz
TTITLE0=Honeysuckle rose
TTITLE1=Dapne
TTITLE2=My sweet
TTITLE3=Undecided
TTITLE4=Don't worry 'bout me
TTITLE5=Sweet Georgia Brown
TTITLE6=Lambeth walk
TTITLE7=H.C.Q. strut
TTITLE8=The man I love
TTITLE9=Swing guitar
TTITLE10=Improvisation sur le 1er MVT de J.S.Bach
TTITLE11=Echoes of Spain
TTITLE12=Improvisation No. 2
TTITLE13=Minor swing
EXTD=
EXTT0=
EXTT1=
EXTT2=
EXTT3=
EXTT4=
EXTT5=
EXTT6=
EXTT7=
EXTT8=
EXTT9=
EXTT10=
EXTT11=
EXTT12=
EXTT13=
PLAYORDER=
